{
"scene": 0,
"scenes" : [
    {
    "nodes" : [ 0 ]
    }
],

"nodes" : [
    {
    "mesh" : 0
    }
],

"meshes" : [
    {
    "primitives" : [ {
        "attributes" : {
        "POSITION" : 1
        },
        "indices" : 0,
        "material" : 0
    } ]
    }
],

"materials": [
    {
        "name": "TransparentMaterial",
        "alphaMode": "MASK",
        "alphaCutoff": 0.5,
        "pbrMetallicRoughness": {
            "baseColorFactor": [1.0, 1.0, 1.0, 1.0],
            "metallicFactor": 0.0,
            "roughnessFactor": 0.5
        },
        "extensions": {
                "KHR_materials_iridescence": {
                    "iridescenceFactor": 1.0,
                    "iridescenceIor": 1.3,
                    "iridescenceThicknessMaximum": 400.0
                }
            }
    }
],

"buffers" : [
    {
    "uri" : "data:application/octet-stream;base64,",
    "byteLength" : 44
    }
],
"bufferViews" : [
    {
    "buffer" : 0,
    "byteOffset" : 0,
    "byteLength" : 6,
    "target" : 34963
    },
    {
    "buffer" : 0,
    "byteOffset" : 8,
    "byteLength" : 36,
    "target" : 34962
    }
],
"accessors" : [
    {
    "bufferView" : 0,
    "byteOffset" : 0,
    "componentType" : 5123,
    "count" : 3,
    "type" : "SCALAR",
    "max" : [ 2 ],
    "min" : [ 0 ]
    },
    {
    "bufferView" : 1,
    "byteOffset" : 0,
    "componentType" : 5126,
    "count" : 3,
    "type" : "VEC3",
    "max" : [ 1.0, 1.0, 0.0 ],
    "min" : [ 0.0, 0.0, 0.0 ]
    }
],

"asset" : {
    "version" : "2.0"
},
    "extensionsUsed": [
        "KHR_materials_iridescence"
    ]
}