{
"scene": 0,
"scenes" : [
    {
    "nodes" : [ 0 ]
    }
],

"nodes" : [
    {
    "mesh" : 0
    }
],

"meshes" : [
    {
    "primitives" : [ {
        "attributes" : {
        "POSITION" : 1,
        "TEXCOORD_0" : 2
        },
        "indices" : 0,
        "material" : 0
    } ]
    }
],

"textures" : [
    {
        "sampler" : 0,
        "source" : 0
    } ],

"images" : [
    {
        "uri" : "testTexture.png"
    }
],

"samplers" : [
    {
        "magFilter" : 9729,
        "minFilter" : 9987,
        "wrapS" : 33648,
        "wrapT" : 33648
    }
],

"materials": [
    {
        "name": "TransparentMaterial",
        "alphaMode": "MASK",
        "alphaCutoff": 0.5,
        "emissiveFactor": [1.0, 0.0, 1.0],
        "normalTexture": {
            "index" : 0,
            "scale" : 1.0,
            "extensions": {
                "KHR_texture_transform":{
                    "offset": [
                        0,
                        0
                    ],
                    "rotation":0,
                    "scale": [
                        1,
                        1
                    ]
                }
            }
        },
        "occlusionTexture": {
            "index" : 0,
            "strength": 1,
            "extensions": {
                "KHR_texture_transform":{
                    "offset": [
                        0,
                        0
                    ],
                    "rotation": 0,
                    "scale": [
                        1,
                        1
                    ]
                }
            }
        },
        "emissiveTexture" :{
            "index" : 0,
            "extensions": {
                "KHR_texture_transform":{
                    "offset": [
                        0,
                        0
                    ],
                    "rotation":0,
                    "scale": [
                        1,
                        1
                    ]
                }
            }
        },
        "pbrMetallicRoughness": {
            "baseColorFactor": [1.0, 1.0, 1.0, 1.0],
            "metallicFactor": 0.0,
            "roughnessFactor": 0.5,
            "baseColorTexture" : 
            {
                "index": 0,
                "extensions": {
                    "KHR_texture_transform":{
                        "offset": [
                            0,
                            0
                        ],
                        "rotation": 0,
                        "scale": [
                            1,
                            1
                        ]
                    }
                }
            },
            "metallicRoughnessTexture" : 
            {
                "index": 0,
                "extensions": {
                    "KHR_texture_transform":{
                        "offset": [
                            0,
                            0
                        ],
                        "rotation": 0,
                        "scale": [
                            1,
                            1
                        ]
                    }
                }
            }
        },
        "extensions": {
                "KHR_materials_clearcoat": {
                    "clearcoatFactor": 1.0,
                    "clearcoatTexture":{
                        "index" : 0,
                        "extensions": {
                            "KHR_texture_transform":{
                                "offset": [
                                    0,
                                    0
                                ],
                                "rotation": 0,
                                "scale": [
                                    1,
                                    1
                                ]
                            }
                        }
                      },
                    "clearcoatRoughnessFactor": 1.0,
                    "clearcoatRoughnessTexture":{
                        "index" : 0,
                        "extensions": {
                            "KHR_texture_transform":{
                                "offset": [
                                    0,
                                    0
                                ],
                                "rotation": 0,
                                "scale": [
                                    1,
                                    1
                                ]
                            }
                        }
                      },
                    "clearcoatNormalTexture":{
                        "index" : 0,
                        "extensions": {
                            "KHR_texture_transform":{
                                "offset": [
                                    0,
                                    0
                                ],
                                "rotation": 0,
                                "scale": [
                                    1,
                                    1
                                ]
                            }
                        }
                      }
                    },
                "KHR_materials_dispersion" :{
                    "dispersion": 0
                },
                "KHR_materials_ior" :{
                    "ior": 1.5
                },
                "KHR_materials_iridescence": {
                    "iridescenceFactor": 1.0,
                    "iridescenceIor": 1.3,
                    "iridescenceThicknessMinimum": 100.0,
                    "iridescenceThicknessMaximum": 400.0,
                    "iridescenceTexture": {
                            "index" : 0,
                            "extensions": {
                                "KHR_texture_transform":{
                                    "offset": [
                                        0,
                                        0
                                    ],
                                    "rotation": 0,
                                    "scale": [
                                        1,
                                        1
                                    ]
                                }
                            }
                        },
                    "iridescenceThicknessTexture": {
                            "index" : 0,
                            "extensions": {
                                "KHR_texture_transform":{
                                    "offset": [
                                        0,
                                        0
                                    ],
                                    "rotation": 0,
                                    "scale": [
                                        1,
                                        1
                                    ]
                                }
                            }
                        }
                    },
                "KHR_materials_sheen" : {
                    "sheenColorFactor": [
                        0,
                        0,
                        0
                    ],
                    "sheenRoughnessFactor": 0,
                    "sheenColorTexture":{
                        "index" : 0,
                        "extensions": {
                            "KHR_texture_transform":{
                                "offset": [
                                    0,
                                    0
                                ],
                                "rotation": 0,
                                "scale": [
                                    1,
                                    1
                                ]
                            }
                        }
                    }
                },
                "KHR_materials_specular" :{
                    "specularFactor": 1,
                    "specularTexture" : {
                        "index" : 0,
                        "extensions": {
                            "KHR_texture_transform":{
                                "offset": [
                                    0,
                                    0
                                ],
                                "rotation": 0,
                                "scale": [
                                    1,
                                    1
                                ]
                            }
                        }
                    },
                    "specularColorFactor": [
                        1,
                        1,
                        1
                    ],
                    "specularColorTexture":{
                        "index" : 0,
                        "extensions": {
                            "KHR_texture_transform":{
                                "offset": [
                                    0,
                                    0
                                ],
                                "rotation": 0,
                                "scale": [
                                    1,
                                    1
                                ]
                            }
                        }
                }
                },
                "KHR_materials_transmission" :{
                    "transmissionFactor": 0,
                    "transmissionTexture":{
                        "index" : 0,
                        "extensions": {
                            "KHR_texture_transform":{
                                "offset": [
                                    0,
                                    0
                                ],
                                "rotation": 0,
                                "scale": [
                                    1,
                                    1
                                ]
                            }
                        }
                }
                },
                "KHR_materials_volume" : {
                    "thicknessFactor": 0,
                    "attenuationDistance": 1,
                    "attenuationColor": [
                        1,
                        1,
                        1
                    ],
                    "thicknessTexture":{
                        "index" : 0,
                        "extensions": {
                            "KHR_texture_transform":{
                                "offset": [
                                    0,
                                    0
                                ],
                                "rotation": 0,
                                "scale": [
                                    1,
                                    1
                                ]
                            }
                        }
                    }
                }
            }
    }
],

"buffers" : [ {
    "uri" : "data:application/gltf-buffer;base64,",
    "byteLength" : 108
  } ],
  "bufferViews" : [ {
    "buffer" : 0,
    "byteOffset" : 0,
    "byteLength" : 12,
    "target" : 34963
  }, {
    "buffer" : 0,
    "byteOffset" : 12,
    "byteLength" : 96,
    "byteStride" : 12,
    "target" : 34962
  } ],
  "accessors" : [ {
    "bufferView" : 0,
    "byteOffset" : 0,
    "componentType" : 5123,
    "count" : 6,
    "type" : "SCALAR",
    "max" : [ 3 ],
    "min" : [ 0 ]
  }, {
    "bufferView" : 1,
    "byteOffset" : 0,
    "componentType" : 5126,
    "count" : 4,
    "type" : "VEC3",
    "max" : [ 1.0, 1.0, 0.0 ],
    "min" : [ 0.0, 0.0, 0.0 ]
  }, {
    "bufferView" : 1,
    "byteOffset" : 48,
    "componentType" : 5126,
    "count" : 4,
    "type" : "VEC2",
    "max" : [ 1.0, 1.0 ],
    "min" : [ 0.0, 0.0 ]
  } ],

"asset" : {
    "version" : "2.0"
},
    "extensionsUsed": [
        "KHR_materials_iridescence",
        "KHR_materials_clearcoat",
        "KHR_texture_transform",
        "KHR_materials_dispersion",
        "KHR_materials_ior",
        "KHR_materials_sheen",
        "KHR_materials_specular",
        "KHR_materials_transmission",
        "KHR_materials_volume"
    ]
}